<svg width="515" height="500" viewBox="0 0 515 500" fill="none" xmlns="http://www.w3.org/2000/svg">
<rect width="515" height="500" fill="white"/>
<path fill-rule="evenodd" clip-rule="evenodd" d="M125.033 274.147L135.976 266.172C140.043 263.208 145.381 262.634 149.985 264.666L155.461 267.084C156.374 267.486 157.431 267.378 158.242 266.797L170.112 258.312C175.295 254.607 182.317 254.833 187.25 258.865L189.04 260.329C189.256 260.505 189.131 260.854 188.853 260.854C186.553 260.854 184.304 261.524 182.378 262.781L173.155 268.806C169.279 271.338 164.408 271.808 160.12 270.063L157.394 268.954C154.967 267.967 152.212 268.212 149.997 269.614L139.357 276.348C135.641 278.7 131.04 279.185 126.914 277.659L121.386 275.614C121.227 275.555 121.269 275.318 121.439 275.318C122.731 275.318 123.989 274.908 125.033 274.147ZM148.128 282.438L159.071 274.462C163.138 271.498 168.476 270.924 173.08 272.957L178.832 275.495C179.162 275.641 179.087 276.129 178.729 276.169L178.515 276.193C176.397 276.43 174.359 277.143 172.556 278.28L162.446 284.656C158.733 286.998 154.14 287.478 150.023 285.954L144.481 283.904C144.322 283.845 144.364 283.608 144.534 283.608C145.826 283.608 147.084 283.198 148.128 282.438Z" fill="#3073FA"/>
<path d="M145.569 242.27L143.915 222.563C143.771 220.839 142.077 219.684 140.42 220.18L140.152 220.26C137.915 220.928 136.692 223.33 137.466 225.532L143.226 241.915C143.943 243.954 146.633 244.387 147.954 242.677L158.59 228.902C160.045 227.017 159.588 224.293 157.597 222.987L157.16 222.7C155.73 221.762 153.8 222.357 153.147 223.937L145.569 242.27Z" fill="#003EBC"/>
<path d="M155.752 248.829L169.954 235.065C171.196 233.862 171.017 231.82 169.584 230.851L169.352 230.694C167.419 229.387 164.785 229.962 163.571 231.956L154.542 246.791C153.419 248.637 154.788 250.993 156.948 250.932L174.344 250.436C176.724 250.368 178.542 248.289 178.292 245.921L178.237 245.401C178.058 243.701 176.374 242.584 174.738 243.079L155.752 248.829Z" fill="#003EBC"/>
<path d="M129.77 258.53L111.346 265.719C109.735 266.348 109.109 268.299 110.055 269.748L110.208 269.982C111.485 271.936 114.135 272.426 116.026 271.058L130.096 260.877C131.847 259.611 131.497 256.908 129.482 256.128L113.252 249.848C111.031 248.988 108.549 250.201 107.863 252.481L107.712 252.982C107.219 254.619 108.338 256.301 110.039 256.478L129.77 258.53Z" fill="#003EBC"/>
<path d="M133.163 246.903L115.93 237.2C114.422 236.351 112.516 237.103 111.995 238.753L111.91 239.019C111.207 241.245 112.506 243.607 114.763 244.203L131.553 248.642C133.642 249.194 135.512 247.211 134.839 245.158L129.418 228.621C128.676 226.358 126.166 225.206 123.967 226.119L123.484 226.319C121.905 226.975 121.313 228.907 122.253 230.335L133.163 246.903Z" fill="#003EBC"/>
<path d="M236.093 258.04H226.237C225.896 260.344 225.32 262.349 224.509 264.056C223.741 265.72 222.803 267.107 221.693 268.216C220.627 269.368 219.432 270.2 218.109 270.712C216.829 271.267 215.485 271.544 214.077 271.544C211.901 271.544 209.96 271.139 208.253 270.328C206.589 269.517 205.245 268.344 204.221 266.808C202.941 264.845 202.301 262.435 202.301 259.576C202.301 258.253 202.429 256.888 202.685 255.48L206.269 256.184C206.099 257.165 206.013 258.168 206.013 259.192C206.013 261.411 206.483 263.224 207.421 264.632C208.019 265.571 208.851 266.317 209.917 266.872C211.027 267.427 212.413 267.704 214.077 267.704C214.973 267.704 215.848 267.512 216.701 267.128C217.597 266.787 218.429 266.211 219.197 265.4C219.965 264.547 220.648 263.416 221.245 262.008C221.885 260.6 222.333 258.808 222.589 256.632C222.803 254.755 223.016 252.899 223.229 251.064C223.443 249.229 223.656 247.523 223.869 245.944C224.083 244.536 224.317 242.957 224.573 241.208C224.872 239.416 225.277 237.688 225.789 236.024C226.301 234.317 226.963 232.76 227.773 231.352C228.627 229.944 229.715 228.856 231.037 228.088C232.232 227.363 233.683 227 235.389 227C236.072 227 236.776 227.064 237.501 227.192C238.269 227.32 239.08 227.555 239.933 227.896V259.448C240.019 260.387 240.253 261.24 240.637 262.008C241.021 262.776 241.725 263.16 242.749 263.16H247.741V267H242.749C241.683 267 240.744 266.787 239.933 266.36C239.123 265.933 238.44 265.379 237.885 264.696C237.331 263.971 236.904 263.16 236.605 262.264C236.307 261.368 236.136 260.451 236.093 259.512V258.04ZM232.957 231.416C232.061 231.971 231.293 232.909 230.653 234.232C230.056 235.512 229.544 236.92 229.117 238.456C228.733 239.949 228.413 241.443 228.157 242.936C227.944 244.387 227.773 245.56 227.645 246.456L226.685 254.2H236.093V230.712C235.368 230.712 234.749 230.776 234.237 230.904C233.725 231.032 233.299 231.203 232.957 231.416ZM216.573 256.76L213.565 259.704L210.621 256.76L213.565 253.752L210.621 250.808L213.565 247.8L216.573 250.808L213.565 253.752L216.573 256.76ZM245.922 231.864H249.762V259.384C249.762 260.323 249.975 261.197 250.402 262.008C250.829 262.776 251.554 263.16 252.578 263.16H263.138L261.218 267H252.578C251.469 267 250.509 266.787 249.698 266.36C248.887 265.933 248.183 265.379 247.586 264.696C247.031 263.971 246.605 263.16 246.306 262.264C246.05 261.325 245.922 260.387 245.922 259.448V231.864ZM311.42 258.04H299.58V270.2L295.74 272.12V244.6C295.74 242.893 295.442 241.357 294.844 239.992C294.247 238.627 293.458 237.496 292.476 236.6C291.495 235.661 290.343 234.979 289.02 234.552C287.698 234.125 286.332 233.997 284.924 234.168C283.687 234.296 282.471 234.659 281.276 235.256C280.124 235.811 279.1 236.579 278.204 237.56C277.308 238.499 276.583 239.651 276.028 241.016C275.516 242.339 275.282 243.832 275.324 245.496C275.367 246.733 275.602 247.864 276.028 248.888C276.455 249.869 277.031 250.701 277.756 251.384C278.482 252.067 279.292 252.6 280.188 252.984C281.127 253.325 282.087 253.496 283.068 253.496C284.092 253.496 285.18 253.261 286.332 252.792L287.74 256.056C286.204 256.739 284.562 257.08 282.812 257.08C281.362 257.08 279.954 256.824 278.588 256.312C277.266 255.8 276.071 255.053 275.004 254.072C273.98 253.048 273.148 251.832 272.508 250.424C271.868 249.016 271.527 247.416 271.484 245.624C271.442 243.405 271.783 241.4 272.508 239.608C273.234 237.816 274.194 236.259 275.388 234.936C276.626 233.613 278.034 232.568 279.612 231.8C281.191 231.032 282.812 230.541 284.476 230.328C286.268 230.115 288.06 230.285 289.852 230.84C291.687 231.395 293.308 232.291 294.716 233.528C296.167 234.723 297.34 236.259 298.236 238.136C299.132 240.013 299.58 242.168 299.58 244.6V254.2H311.42V227.96H315.26V264.632C315.26 265.485 315.367 266.211 315.58 266.808C315.836 267.405 316.114 267.875 316.412 268.216C317.052 268.856 317.842 269.176 318.78 269.176V273.016C317.842 273.016 316.924 272.824 316.028 272.44C315.132 272.099 314.343 271.565 313.66 270.84C312.978 270.115 312.423 269.24 311.996 268.216C311.612 267.192 311.42 265.997 311.42 264.632V258.04ZM319.734 254.584C319.734 252.323 320.246 250.424 321.27 248.888C322.337 247.309 323.532 245.987 324.854 244.92C326.092 243.896 327.372 242.872 328.694 241.848C330.017 240.824 330.977 239.779 331.574 238.712L334.39 240.696C333.878 241.635 333.26 242.509 332.534 243.32C331.809 244.088 331.02 244.813 330.166 245.496H333.174V259.448C333.174 260.387 333.388 261.24 333.814 262.008C334.284 262.776 335.009 263.16 335.99 263.16H340.982V267H335.99C335.094 267 334.241 266.851 333.43 266.552C332.62 266.253 331.916 265.763 331.318 265.08C330.038 266.445 328.353 267.128 326.262 267.128C325.409 267.128 324.598 266.979 323.83 266.68C323.062 266.339 322.358 265.869 321.718 265.272C321.121 264.675 320.63 263.971 320.246 263.16C319.905 262.307 319.734 261.347 319.734 260.28V254.584ZM329.334 246.264L327.414 247.8C326.262 248.824 325.324 249.869 324.598 250.936C323.916 251.96 323.574 253.176 323.574 254.584V260.28C323.574 261.261 323.852 262.008 324.406 262.52C325.004 263.032 325.622 263.288 326.262 263.288C327.372 263.288 328.14 262.947 328.566 262.264C329.036 261.539 329.292 260.728 329.334 259.832V246.264ZM338.67 263.16H345.646C346.03 263.16 346.414 263.117 346.798 263.032C347.225 262.904 347.609 262.733 347.95 262.52C348.292 262.264 348.569 261.944 348.782 261.56C349.038 261.133 349.166 260.6 349.166 259.96C349.166 258.936 348.868 258.168 348.27 257.656C347.673 257.059 346.798 256.76 345.646 256.76H340.654C340.1 256.76 339.63 256.589 339.246 256.248C338.905 255.864 338.734 255.395 338.734 254.84V250.808C338.734 248.675 339.31 246.989 340.462 245.752C341.657 244.515 343.3 243.896 345.39 243.896H351.214L349.934 247.736H345.39C344.281 247.736 343.534 248.099 343.15 248.824C342.809 249.507 342.617 250.275 342.574 251.128V252.92H345.646C347.78 252.92 349.529 253.56 350.894 254.84C352.302 256.12 353.006 257.827 353.006 259.96C353.006 261.112 352.729 262.179 352.174 263.16H360.878V267H336.75L338.67 263.16ZM339.31 272.248L342.254 269.24L345.134 272.12L348.014 269.24L351.022 272.248L348.014 275.192L345.134 272.312L342.254 275.192L339.31 272.248ZM369.189 264.952C367.909 263.544 367.269 261.752 367.269 259.576V250.552C367.269 249.443 366.949 248.632 366.309 248.12C365.712 247.565 365.093 247.288 364.453 247.288C363.429 247.288 362.704 247.629 362.277 248.312C361.85 248.952 361.637 249.699 361.637 250.552V267H357.797V231.288H361.637V244.024C362.448 243.64 363.386 243.448 364.453 243.448C365.392 243.448 366.266 243.64 367.077 244.024C367.888 244.408 368.592 244.92 369.189 245.56C369.786 246.2 370.256 246.968 370.597 247.864C370.938 248.717 371.109 249.613 371.109 250.552V259.384C371.109 260.579 371.365 261.517 371.877 262.2C372.389 262.84 373.093 263.16 373.989 263.16H378.981V267H373.989C372.026 267 370.426 266.317 369.189 264.952ZM394.601 250.552C394.601 249.528 394.345 248.717 393.833 248.12C393.364 247.608 392.788 247.352 392.105 247.352C391.252 247.352 390.59 247.587 390.121 248.056C389.908 248.269 389.716 248.568 389.545 248.952C389.417 249.336 389.332 249.805 389.289 250.36V267L385.449 264.504V250.36C385.406 249.891 385.321 249.464 385.193 249.08C385.065 248.696 384.894 248.376 384.681 248.12C384.212 247.565 383.636 247.288 382.953 247.288C382.1 247.288 381.46 247.544 381.033 248.056C380.82 248.312 380.628 248.653 380.457 249.08C380.286 249.507 380.18 250.061 380.137 250.744V267H376.297V250.68C376.34 249.656 376.51 248.717 376.809 247.864C377.108 246.968 377.556 246.179 378.153 245.496C379.433 244.131 381.033 243.448 382.953 243.448C383.849 243.448 384.66 243.64 385.385 244.024C386.153 244.365 386.814 244.835 387.369 245.432C388.649 244.152 390.228 243.512 392.105 243.512C393.94 243.512 395.454 244.173 396.649 245.496C397.844 246.819 398.441 248.504 398.441 250.552V259.384C398.441 260.536 398.697 261.453 399.209 262.136C399.721 262.819 400.425 263.16 401.321 263.16H406.313V267H401.321C400.254 267 399.294 266.787 398.441 266.36C397.63 265.933 396.926 265.379 396.329 264.696C395.774 263.971 395.348 263.16 395.049 262.264C394.75 261.368 394.601 260.472 394.601 259.576V250.552ZM405.84 264.952C405.243 264.269 404.795 263.48 404.496 262.584C404.198 261.645 404.027 260.621 403.984 259.512V243.896H407.824V259.448C407.824 260.429 408.038 261.304 408.464 262.072C408.934 262.797 409.659 263.16 410.64 263.16H415.568V267H410.64C409.702 267 408.806 266.851 407.952 266.552C407.142 266.211 406.438 265.677 405.84 264.952ZM403.088 237.688L406.032 234.68L409.04 237.688L406.032 240.632L403.088 237.688Z" fill="black"/>
</svg>
